<svg width="512" height="97" viewBox="0 0 512 97" fill="none" xmlns="http://www.w3.org/2000/svg">
<path d="M277.797 72.88C276.005 73.3493 274.405 73.584 272.997 73.584C271.632 73.584 270.416 73.4987 269.349 73.328C268.282 73.1573 267.13 72.816 265.893 72.304C264.698 71.8347 263.568 71.28 262.501 70.64C261.434 70 260.368 69.2107 259.301 68.272C257.338 66.6933 255.546 64.9867 253.925 63.152C252.346 61.3173 249.274 57.8827 244.709 52.848C240.144 47.7707 237.114 44.4 235.621 42.736C234.128 41.072 232.976 40.1973 232.165 40.112V39.472C234.64 39.472 236.282 39.4293 237.093 39.344C237.946 39.216 238.842 39.024 239.781 38.768C240.72 38.4693 241.509 38.0853 242.149 37.616C244.666 35.9947 245.925 33.3067 245.925 29.552C245.925 26.4373 245.221 23.9413 243.813 22.064C242.448 20.1867 240.506 19.2267 237.989 19.184H230.053V57.328C230.053 58.3947 230.437 59.3333 231.205 60.144C232.016 60.9547 232.997 61.36 234.149 61.36H234.917L234.981 62H220.965V61.36H221.797C222.864 61.36 223.802 60.976 224.613 60.208C225.424 59.44 225.85 58.5013 225.893 57.392V21.872C225.85 20.7627 225.424 19.824 224.613 19.056C223.845 18.2453 222.906 17.84 221.797 17.84H220.965V17.2H238.245C242 17.2 245.008 18.2667 247.269 20.4C249.573 22.4907 250.725 25.2853 250.725 28.784C250.725 32.24 249.68 35.2267 247.589 37.744C245.498 40.2187 242.938 41.456 239.909 41.456C239.909 41.456 239.888 41.456 239.845 41.456C241.296 42.992 242.938 44.784 244.773 46.832C252.154 54.9813 256.89 60.1013 258.981 62.192C261.072 64.2827 262.906 65.9893 264.485 67.312C266.106 68.6773 267.536 69.68 268.773 70.32C271.29 71.6853 273.786 72.368 276.261 72.368C276.773 72.368 277.285 72.3253 277.797 72.24V72.88Z" fill="white"/>
<path d="M243.156 74.216C252.244 77.3733 259.05 79.5067 263.572 80.616C268.138 81.768 272.042 82.344 275.284 82.344C278.57 82.344 282.175 81.5973 286.1 80.104L286.42 80.616C281.215 84.2 275.967 85.992 270.676 85.992C265.258 85.992 259.092 84.3067 252.18 80.936C246.847 78.2907 243.54 76.6907 242.26 76.136C237.695 74.088 233.94 73.0427 230.996 73V72.36H231.828C232.938 72.36 233.876 71.976 234.644 71.208C235.455 70.44 235.882 69.48 235.924 68.328V32.872C235.882 31.7627 235.455 30.824 234.644 30.056C233.876 29.2453 232.938 28.84 231.828 28.84H230.996V28.2H245.012V28.84H244.18C243.071 28.84 242.111 29.2453 241.3 30.056C240.49 30.824 240.084 31.7627 240.084 32.872V69.8C240.084 70.568 240.127 71.1653 240.212 71.592C240.298 71.976 240.575 72.424 241.044 72.936C241.514 73.448 242.218 73.8747 243.156 74.216Z" fill="white"/>
<g filter="url(#filter0_d_1_25)">
<path d="M342.395 59.684C347.507 61.46 351.335 62.66 353.879 63.284C356.447 63.932 358.643 64.256 360.467 64.256C362.315 64.256 364.343 63.836 366.551 62.996L366.731 63.284C363.803 65.3 360.851 66.308 357.875 66.308C354.827 66.308 351.359 65.36 347.471 63.464C344.471 61.976 342.611 61.076 341.891 60.764C339.323 59.612 337.211 59.024 335.555 59V58.64H336.023C336.647 58.64 337.175 58.424 337.607 57.992C338.063 57.56 338.303 57.02 338.327 56.372V36.428C338.303 35.804 338.063 35.276 337.607 34.844C337.175 34.388 336.647 34.16 336.023 34.16H335.555V33.8H343.439V34.16H342.971C342.347 34.16 341.807 34.388 341.351 34.844C340.895 35.276 340.667 35.804 340.667 36.428V57.2C340.667 57.632 340.691 57.968 340.739 58.208C340.787 58.424 340.943 58.676 341.207 58.964C341.471 59.252 341.867 59.492 342.395 59.684ZM350.472 58.64C351.096 58.64 351.624 58.424 352.056 57.992C352.512 57.536 352.752 56.996 352.776 56.372V36.212C352.776 35.636 352.548 35.156 352.092 34.772C351.636 34.364 351.096 34.16 350.472 34.16H350.04L350.004 33.8H360.552C361.296 33.8 362.1 33.728 362.964 33.584C363.852 33.44 364.476 33.296 364.836 33.152V37.688H364.476V37.04C364.476 36.464 364.272 35.972 363.864 35.564C363.48 35.156 363.012 34.94 362.46 34.916H355.116V46.04H361.2C361.68 46.016 362.088 45.836 362.424 45.5C362.76 45.164 362.928 44.744 362.928 44.24V43.736H363.288V49.424H362.928V48.884C362.928 48.404 362.76 47.996 362.424 47.66C362.112 47.324 361.716 47.144 361.236 47.12H355.116V57.884H360.264C362.04 57.884 363.396 57.488 364.332 56.696C365.268 55.904 366.048 54.728 366.672 53.168H367.032L364.944 59H350.004V58.64H350.472ZM401.021 58.64H401.597V59H393.785V58.676H394.325C394.733 58.676 395.081 58.52 395.369 58.208C395.657 57.896 395.777 57.536 395.729 57.128L394.109 39.02L386.549 55.832C385.877 57.296 385.469 58.52 385.325 59.504H384.965L375.749 39.524L374.201 57.128C374.153 57.512 374.273 57.872 374.561 58.208C374.849 58.52 375.197 58.676 375.605 58.676H376.145V59H369.161V58.64H369.737C370.409 58.64 370.985 58.436 371.465 58.028C371.969 57.62 372.269 57.068 372.365 56.372L375.065 33.296H375.425L385.469 55.004L395.297 33.296H395.621L398.393 56.372C398.489 57.068 398.789 57.62 399.293 58.028C399.797 58.436 400.373 58.64 401.021 58.64ZM404.753 58.64C405.377 58.64 405.905 58.424 406.337 57.992C406.793 57.536 407.033 56.996 407.057 56.372V36.212C407.057 35.636 406.829 35.156 406.373 34.772C405.917 34.364 405.377 34.16 404.753 34.16H404.321L404.285 33.8H414.833C415.577 33.8 416.381 33.728 417.245 33.584C418.133 33.44 418.757 33.296 419.117 33.152V37.688H418.757V37.04C418.757 36.464 418.553 35.972 418.145 35.564C417.761 35.156 417.293 34.94 416.741 34.916H409.397V46.04H415.481C415.961 46.016 416.369 45.836 416.705 45.5C417.041 45.164 417.209 44.744 417.209 44.24V43.736H417.569V49.424H417.209V48.884C417.209 48.404 417.041 47.996 416.705 47.66C416.393 47.324 415.997 47.144 415.517 47.12H409.397V57.884H414.545C416.321 57.884 417.677 57.488 418.613 56.696C419.549 55.904 420.329 54.728 420.953 53.168H421.313L419.225 59H404.285V58.64H404.753ZM425.098 57.524C425.026 57.188 424.99 56.54 424.99 55.58C424.99 54.62 425.17 53.6 425.53 52.52H425.854C425.83 52.784 425.818 53.048 425.818 53.312C425.818 54.776 426.262 56 427.15 56.984C428.038 57.944 429.214 58.424 430.678 58.424C432.19 58.424 433.426 57.968 434.386 57.056C435.37 56.144 435.862 55.004 435.862 53.636C435.862 52.244 435.394 51.116 434.458 50.252L427.546 43.844C426.25 42.644 425.602 41.192 425.602 39.488C425.602 37.784 426.166 36.332 427.294 35.132C428.446 33.908 429.994 33.296 431.938 33.296C432.85 33.296 433.882 33.416 435.034 33.656H436.438V38.084H436.114C436.114 36.956 435.718 36.056 434.926 35.384C434.158 34.712 433.162 34.376 431.938 34.376C430.714 34.376 429.682 34.784 428.842 35.6C428.026 36.416 427.618 37.436 427.618 38.66C427.618 39.884 428.098 40.94 429.058 41.828L436.15 48.38C437.35 49.484 437.95 50.996 437.95 52.916C437.95 54.836 437.338 56.42 436.114 57.668C434.89 58.892 433.258 59.504 431.218 59.504C430.162 59.504 429.034 59.336 427.834 59C426.658 58.688 425.746 58.196 425.098 57.524ZM459.715 58.64C460.339 58.64 460.867 58.424 461.299 57.992C461.755 57.536 461.995 57.008 462.019 56.408V47.084H447.295V56.408C447.295 57.032 447.523 57.56 447.979 57.992C448.435 58.424 448.975 58.64 449.599 58.64H450.067V59H442.183V58.64H442.651C443.275 58.64 443.803 58.424 444.235 57.992C444.691 57.56 444.931 57.032 444.955 56.408V36.392C444.931 35.768 444.691 35.24 444.235 34.808C443.803 34.376 443.275 34.16 442.651 34.16H442.183V33.8H450.067V34.16H449.599C448.975 34.16 448.435 34.376 447.979 34.808C447.547 35.24 447.319 35.768 447.295 36.392V46.004H462.019V36.392C461.995 35.528 461.611 34.88 460.867 34.448C460.507 34.256 460.123 34.16 459.715 34.16H459.247V33.8H467.131V34.16H466.663C466.039 34.16 465.499 34.388 465.043 34.844C464.611 35.276 464.383 35.804 464.359 36.428V56.408C464.383 57.032 464.611 57.56 465.043 57.992C465.499 58.424 466.039 58.64 466.663 58.64H467.131V59H459.247V58.64H459.715ZM459.808 58.64C460.432 58.64 460.96 58.424 461.392 57.992C461.848 57.536 462.088 56.996 462.112 56.372V36.212C462.112 35.636 461.884 35.156 461.428 34.772C460.972 34.364 460.432 34.16 459.808 34.16H459.376L459.34 33.8H469.888C470.632 33.8 471.436 33.728 472.3 33.584C473.188 33.44 473.812 33.296 474.172 33.152V37.688H473.812V37.04C473.812 36.464 473.608 35.972 473.2 35.564C472.816 35.156 472.348 34.94 471.796 34.916H464.452V46.04H470.536C471.016 46.016 471.424 45.836 471.76 45.5C472.096 45.164 472.264 44.744 472.264 44.24V43.736H472.624V49.424H472.264V48.884C472.264 48.404 472.096 47.996 471.76 47.66C471.448 47.324 471.052 47.144 470.572 47.12H464.452V57.884H469.6C471.376 57.884 472.732 57.488 473.668 56.696C474.604 55.904 475.384 54.728 476.008 53.168H476.368L474.28 59H459.34V58.64H459.808ZM497.757 33.8H504.993V34.16H504.669C504.069 34.16 503.481 34.352 502.905 34.736C502.329 35.096 501.873 35.648 501.537 36.392L492.861 55.796C491.973 57.74 491.529 58.976 491.529 59.504H491.205L481.089 36.428C480.753 35.66 480.285 35.096 479.685 34.736C479.109 34.352 478.521 34.16 477.921 34.16H477.633V33.8H485.733V34.16H485.409C484.905 34.16 484.521 34.328 484.257 34.664C484.017 34.976 483.897 35.276 483.897 35.564C483.897 35.828 483.957 36.104 484.077 36.392L491.601 55.256L499.449 36.392C499.545 36.104 499.593 35.828 499.593 35.564C499.593 35.276 499.461 34.976 499.197 34.664C498.957 34.328 498.585 34.16 498.081 34.16H497.757V33.8Z" fill="white"/>
</g>
<g filter="url(#filter1_d_1_25)">
<path d="M34.5421 65.12C33.5341 65.384 32.6341 65.516 31.8421 65.516C31.0741 65.516 30.3901 65.468 29.7901 65.372C29.1901 65.276 28.5421 65.084 27.8461 64.796C27.1741 64.532 26.5381 64.22 25.9381 63.86C25.3381 63.5 24.7381 63.056 24.1381 62.528C23.0341 61.64 22.0261 60.68 21.1141 59.648C20.2261 58.616 18.4981 56.684 15.9301 53.852C13.3621 50.996 11.6581 49.1 10.8181 48.164C9.97806 47.228 9.33006 46.736 8.87406 46.688V46.328C10.2661 46.328 11.1901 46.304 11.6461 46.256C12.1261 46.184 12.6301 46.076 13.1581 45.932C13.6861 45.764 14.1301 45.548 14.4901 45.284C15.9061 44.372 16.6141 42.86 16.6141 40.748C16.6141 38.996 16.2181 37.592 15.4261 36.536C14.6581 35.48 13.5661 34.94 12.1501 34.916H7.68606V56.372C7.68606 56.972 7.90206 57.5 8.33406 57.956C8.79006 58.412 9.34206 58.64 9.99006 58.64H10.4221L10.4581 59H2.57406V58.64H3.04206C3.64206 58.64 4.17006 58.424 4.62606 57.992C5.08206 57.56 5.32206 57.032 5.34606 56.408V36.428C5.32206 35.804 5.08206 35.276 4.62606 34.844C4.19406 34.388 3.66606 34.16 3.04206 34.16H2.57406V33.8H12.2941C14.4061 33.8 16.0981 34.4 17.3701 35.6C18.6661 36.776 19.3141 38.348 19.3141 40.316C19.3141 42.26 18.7261 43.94 17.5501 45.356C16.3741 46.748 14.9341 47.444 13.2301 47.444C13.2301 47.444 13.2181 47.444 13.1941 47.444C14.0101 48.308 14.9341 49.316 15.9661 50.468C20.1181 55.052 22.7821 57.932 23.9581 59.108C25.1341 60.284 26.1661 61.244 27.0541 61.988C27.9661 62.756 28.7701 63.32 29.4661 63.68C30.8821 64.448 32.2861 64.832 33.6781 64.832C33.9661 64.832 34.2541 64.808 34.5421 64.76V65.12ZM28.4873 36.932C31.0553 34.508 34.3793 33.296 38.4593 33.296C42.5633 33.296 45.8993 34.508 48.4673 36.932C51.0353 39.332 52.3193 42.488 52.3193 46.4C52.3193 50.312 51.0353 53.48 48.4673 55.904C45.8993 58.304 42.5633 59.504 38.4593 59.504C34.3793 59.504 31.0553 58.304 28.4873 55.904C25.9193 53.48 24.6353 50.312 24.6353 46.4C24.6353 42.488 25.9193 39.332 28.4873 36.932ZM30.4313 55.112C32.4713 57.32 35.1473 58.424 38.4593 58.424C41.7713 58.424 44.4353 57.32 46.4513 55.112C48.4913 52.904 49.5113 50 49.5113 46.4C49.5113 42.8 48.4913 39.896 46.4513 37.688C44.4353 35.48 41.7713 34.376 38.4593 34.376C35.1473 34.376 32.4713 35.48 30.4313 37.688C28.4153 39.896 27.4073 42.8 27.4073 46.4C27.4073 50 28.4153 52.904 30.4313 55.112ZM85.5836 58.64H86.1596V59H78.3476V58.676H78.8876C79.2956 58.676 79.6436 58.52 79.9316 58.208C80.2196 57.896 80.3396 57.536 80.2916 57.128L78.6716 39.02L71.1116 55.832C70.4396 57.296 70.0316 58.52 69.8876 59.504H69.5276L60.3116 39.524L58.7636 57.128C58.7156 57.512 58.8356 57.872 59.1236 58.208C59.4116 58.52 59.7596 58.676 60.1676 58.676H60.7076V59H53.7236V58.64H54.2996C54.9716 58.64 55.5476 58.436 56.0276 58.028C56.5316 57.62 56.8316 57.068 56.9276 56.372L59.6276 33.296H59.9876L70.0316 55.004L79.8596 33.296H80.1836L82.9556 56.372C83.0516 57.068 83.3516 57.62 83.8556 58.028C84.3596 58.436 84.9356 58.64 85.5836 58.64ZM112.464 58.64H112.752V59H104.652V58.64H104.976C105.48 58.64 105.852 58.484 106.092 58.172C106.356 57.836 106.488 57.524 106.488 57.236C106.488 56.948 106.44 56.66 106.344 56.372L104.04 50.252H94.3195L91.9075 56.408C91.8115 56.696 91.7635 56.984 91.7635 57.272C91.7635 57.536 91.8835 57.836 92.1235 58.172C92.3875 58.484 92.7715 58.64 93.2755 58.64H93.5995V59H86.3635V58.64H86.6875C87.2875 58.64 87.8755 58.448 88.4515 58.064C89.0275 57.68 89.4955 57.116 89.8555 56.372L97.9915 37.004C98.8795 35.06 99.3235 33.824 99.3235 33.296H99.6475L109.296 56.372C109.632 57.116 110.088 57.68 110.664 58.064C111.24 58.448 111.84 58.64 112.464 58.64ZM94.7515 49.172H103.608L99.2875 37.616L94.7515 49.172ZM140.324 34.16C139.724 34.16 139.208 34.376 138.776 34.808C138.344 35.216 138.116 35.72 138.092 36.32V54.896C138.092 56.288 138.176 57.608 138.344 58.856L138.416 59.504H138.092L118.472 38.552V56.48C118.472 57.08 118.688 57.596 119.12 58.028C119.552 58.436 120.068 58.64 120.668 58.64H121.352V59H113.936V58.64H114.62C115.22 58.64 115.736 58.436 116.168 58.028C116.6 57.596 116.816 57.068 116.816 56.444V37.76C116.816 36.296 116.732 34.988 116.564 33.836L116.492 33.26H116.852L136.472 54.212V36.356C136.448 35.732 136.22 35.216 135.788 34.808C135.356 34.376 134.84 34.16 134.24 34.16H133.556V33.8H140.972V34.16H140.324Z" fill="white"/>
</g>
<defs>
<filter id="filter0_d_1_25" x="334.555" y="33.152" width="177.438" height="41.156" filterUnits="userSpaceOnUse" color-interpolation-filters="sRGB">
<feFlood flood-opacity="0" result="BackgroundImageFix"/>
<feColorMatrix in="SourceAlpha" type="matrix" values="0 0 0 0 0 0 0 0 0 0 0 0 0 0 0 0 0 0 127 0" result="hardAlpha"/>
<feOffset dx="3" dy="4"/>
<feGaussianBlur stdDeviation="2"/>
<feComposite in2="hardAlpha" operator="out"/>
<feColorMatrix type="matrix" values="0 0 0 0 1 0 0 0 0 1 0 0 0 0 1 0 0 0 0.4 0"/>
<feBlend mode="normal" in2="BackgroundImageFix" result="effect1_dropShadow_1_25"/>
<feBlend mode="normal" in="SourceGraphic" in2="effect1_dropShadow_1_25" result="shape"/>
</filter>
<filter id="filter1_d_1_25" x="1.57407" y="33.26" width="146.398" height="40.256" filterUnits="userSpaceOnUse" color-interpolation-filters="sRGB">
<feFlood flood-opacity="0" result="BackgroundImageFix"/>
<feColorMatrix in="SourceAlpha" type="matrix" values="0 0 0 0 0 0 0 0 0 0 0 0 0 0 0 0 0 0 127 0" result="hardAlpha"/>
<feOffset dx="3" dy="4"/>
<feGaussianBlur stdDeviation="2"/>
<feComposite in2="hardAlpha" operator="out"/>
<feColorMatrix type="matrix" values="0 0 0 0 1 0 0 0 0 1 0 0 0 0 1 0 0 0 0.4 0"/>
<feBlend mode="normal" in2="BackgroundImageFix" result="effect1_dropShadow_1_25"/>
<feBlend mode="normal" in="SourceGraphic" in2="effect1_dropShadow_1_25" result="shape"/>
</filter>
</defs>
</svg>
